<?xml version="1.0" standalone="no"?>
<!DOCTYPE svg PUBLIC "-//W3C//DTD SVG 20010904//EN"
 "http://www.w3.org/TR/2001/REC-SVG-20010904/DTD/svg10.dtd">
<svg version="1.0" xmlns="http://www.w3.org/2000/svg"
 width="1649.000000pt" height="1649.000000pt" viewBox="0 0 1649.000000 1649.000000"
 preserveAspectRatio="xMidYMid meet">

<g transform="translate(0.000000,1649.000000) scale(0.100000,-0.100000)"
fill="#000000" stroke="none">
<path d="M8115 15891 c-105 -23 -146 -37 -229 -78 -77 -39 -120 -53 -246 -83
-47 -12 -129 -41 -182 -66 -54 -25 -155 -61 -226 -79 -76 -19 -162 -50 -209
-74 -49 -24 -130 -53 -204 -71 -73 -18 -168 -51 -229 -80 -58 -26 -151 -60
-208 -74 -57 -14 -153 -47 -215 -75 -62 -27 -151 -59 -198 -70 -106 -26 -144
-39 -243 -85 -43 -20 -130 -50 -193 -66 -64 -16 -164 -52 -222 -79 -60 -27
-147 -58 -201 -70 -52 -12 -145 -44 -206 -71 -61 -27 -164 -63 -230 -80 -65
-17 -161 -51 -212 -75 -53 -26 -143 -57 -210 -73 -64 -16 -148 -44 -187 -62
-124 -58 -149 -67 -250 -90 -55 -12 -136 -39 -180 -60 -108 -52 -120 -56 -267
-95 -70 -19 -163 -52 -207 -74 -44 -22 -128 -53 -187 -67 -158 -40 -195 -80
-163 -172 13 -37 179 -183 587 -515 71 -58 209 -176 271 -233 31 -28 70 -60
86 -73 17 -12 55 -46 86 -74 31 -29 102 -90 159 -137 57 -47 135 -112 174
-145 144 -123 165 -132 243 -109 26 8 60 12 75 8 45 -9 144 -89 171 -136 30
-52 30 -55 67 -274 22 -129 38 -195 65 -260 42 -101 59 -169 80 -321 19 -136
36 -203 80 -314 51 -129 64 -221 75 -534 10 -303 23 -395 79 -555 16 -47 41
-143 56 -215 21 -105 38 -154 85 -255 32 -69 66 -152 75 -185 9 -33 40 -98 70
-145 29 -47 67 -114 84 -149 16 -34 45 -82 64 -105 18 -22 59 -79 90 -126 89
-135 147 -204 319 -383 216 -226 484 -433 681 -527 46 -21 99 -50 120 -64 50
-34 97 -58 182 -91 39 -15 95 -42 125 -58 30 -17 67 -37 81 -44 14 -7 100 -28
190 -47 90 -19 202 -46 249 -59 259 -75 694 -96 1070 -51 116 14 200 31 340
70 30 8 117 28 194 44 116 24 159 39 260 88 66 33 147 69 179 82 32 13 84 39
115 60 32 20 98 57 147 82 179 90 311 184 485 343 101 92 358 355 391 400 16
22 51 69 77 104 124 167 233 339 277 436 20 44 54 109 75 145 22 36 53 111 70
167 17 55 48 138 69 184 41 89 59 157 85 329 9 58 23 141 31 185 21 114 22
123 34 227 26 214 42 330 61 448 11 69 24 155 30 191 5 36 32 132 59 215 34
103 57 198 76 309 16 102 40 202 65 277 46 135 63 202 86 348 27 172 57 250
98 250 11 0 48 -46 67 -81 41 -82 74 -88 145 -29 52 43 137 80 183 80 38 0 77
-39 91 -90 8 -28 10 -142 8 -348 l-3 -307 -33 -95 c-43 -123 -52 -237 -28
-364 28 -145 42 -163 143 -177 196 -28 222 -8 250 201 15 115 15 126 -6 293
-19 154 -21 225 -21 629 0 468 5 546 40 603 27 44 145 157 412 397 41 38 93
83 115 100 80 65 240 207 319 284 69 67 83 85 89 121 13 78 -28 113 -177 150
-57 14 -137 41 -178 60 -98 45 -164 68 -269 93 -47 11 -130 41 -186 67 -55 25
-157 61 -226 79 -71 18 -160 50 -205 72 -46 23 -131 53 -203 71 -70 18 -164
51 -219 77 -55 25 -145 57 -211 73 -65 16 -155 47 -201 69 -100 46 -157 65
-266 91 -44 11 -118 37 -165 59 -95 44 -154 65 -253 87 -37 9 -118 38 -179 66
-60 27 -162 63 -225 79 -64 17 -160 51 -215 76 -54 25 -149 58 -211 73 -62 15
-158 49 -212 74 -54 25 -151 59 -215 76 -63 16 -155 49 -203 71 -48 23 -145
56 -214 74 -71 19 -165 52 -213 75 -49 24 -141 56 -216 76 -72 18 -161 49
-199 68 -125 62 -301 108 -411 106 -32 0 -94 -8 -138 -18z m3865 -2746 c46
-43 60 -77 60 -140 0 -101 -52 -171 -120 -162 -19 3 -53 12 -75 20 -36 15
-392 16 -3686 16 -2006 1 -3654 3 -3662 7 -9 3 -21 22 -28 41 -28 85 56 208
166 244 11 4 1661 6 3667 6 l3647 -2 31 -30z m-757 -1394 c29 -14 54 -35 65
-55 34 -64 11 -272 -53 -456 -41 -120 -52 -179 -60 -320 -31 -576 -36 -611
-107 -779 -22 -52 -53 -144 -69 -205 -20 -73 -43 -133 -69 -177 -21 -36 -57
-107 -78 -156 -22 -50 -58 -114 -81 -143 -24 -30 -53 -74 -66 -100 -13 -25
-47 -77 -77 -115 -29 -39 -69 -92 -88 -120 -71 -104 -290 -339 -385 -413 -33
-25 -79 -62 -101 -82 -23 -20 -68 -49 -99 -65 -31 -15 -87 -51 -124 -77 -36
-27 -94 -62 -129 -78 -35 -16 -95 -49 -135 -73 -40 -25 -103 -55 -142 -67 -38
-12 -121 -47 -182 -77 -89 -43 -138 -59 -230 -78 -65 -13 -183 -38 -263 -57
l-145 -33 -360 0 -360 0 -165 37 c-91 21 -209 46 -263 57 -74 15 -119 31 -185
67 -48 26 -125 60 -171 75 -47 16 -114 47 -150 68 -37 21 -104 57 -151 80 -47
23 -107 60 -135 81 -27 21 -73 52 -102 69 -60 35 -215 157 -288 228 -68 65
-211 225 -261 293 -23 30 -55 70 -72 88 -16 18 -42 54 -57 80 -15 26 -46 69
-67 95 -22 27 -65 96 -95 154 -30 59 -65 120 -77 137 -23 30 -57 115 -91 226
-10 30 -33 84 -52 119 -40 76 -68 172 -83 291 -6 47 -24 153 -40 235 -29 147
-43 261 -55 440 -3 50 -12 131 -20 180 -8 50 -19 126 -25 170 -13 98 -36 204
-56 268 -19 58 -12 109 19 138 33 31 95 60 146 69 25 4 1338 7 2916 6 l2870
-1 48 -24z"/>
<path d="M2310 7988 c-50 -19 -76 -64 -83 -145 -4 -37 -7 -536 -8 -1108 -1
-572 -5 -1076 -10 -1120 -17 -151 -50 -181 -211 -196 -124 -12 -223 -38 -324
-85 -40 -19 -100 -44 -131 -55 -32 -11 -82 -36 -112 -57 -30 -20 -91 -62 -137
-92 -45 -30 -120 -87 -166 -126 -95 -81 -256 -245 -283 -289 -11 -17 -45 -62
-76 -102 -35 -44 -67 -99 -84 -144 -15 -39 -47 -106 -70 -148 -50 -88 -60
-121 -80 -262 -25 -175 -29 -404 -11 -575 19 -175 33 -229 80 -304 19 -30 54
-89 77 -130 57 -100 176 -214 282 -270 43 -23 102 -58 130 -77 64 -41 133 -63
330 -104 211 -44 359 -46 504 -6 56 15 120 27 142 27 56 0 96 -36 118 -108 16
-52 17 -108 14 -602 -3 -588 2 -659 44 -708 l23 -27 189 2 c103 1 301 9 438
19 197 13 437 18 1135 21 887 4 1137 -1 1405 -31 72 -8 317 -24 545 -36 688
-35 958 -57 1255 -105 108 -18 295 -37 490 -50 44 -3 125 -10 180 -17 128 -14
149 -9 177 45 l23 42 0 3125 c0 2970 -1 3127 -18 3153 -21 33 -77 62 -137 72
-25 4 -99 20 -165 35 -155 37 -282 57 -425 70 -181 16 -257 27 -426 64 -261
57 -303 62 -686 86 -376 23 -389 25 -683 70 -310 47 -459 62 -790 80 -110 6
-267 18 -350 26 -134 13 -201 22 -420 55 -101 15 -453 47 -580 53 -66 3 -183
8 -260 11 -77 3 -228 10 -335 16 -383 19 -483 20 -520 7z m90 -2872 c231 -84
295 -114 364 -173 125 -105 156 -135 178 -172 12 -20 41 -58 65 -84 46 -52 55
-77 78 -205 28 -158 30 -282 6 -452 -26 -185 -33 -208 -81 -280 -21 -30 -54
-88 -75 -129 -20 -41 -58 -97 -84 -125 -26 -28 -62 -71 -79 -96 -39 -57 -165
-180 -218 -213 -22 -14 -63 -44 -90 -68 -27 -23 -83 -58 -124 -76 -41 -19
-120 -56 -175 -84 -145 -71 -193 -79 -490 -78 -307 0 -340 7 -469 94 -143 97
-222 185 -304 339 -38 72 -76 149 -83 171 -10 29 -14 98 -14 255 0 242 6 282
65 400 20 41 49 107 64 147 15 40 39 89 54 111 176 254 305 394 452 491 127
83 195 114 318 145 56 15 126 36 155 47 106 43 188 58 307 58 96 0 126 -3 180
-23z"/>
<path d="M13948 7995 c-2 -2 -118 -8 -258 -14 -140 -7 -358 -16 -485 -22 -126
-5 -243 -12 -260 -14 -16 -2 -70 -6 -120 -10 -49 -3 -189 -20 -310 -36 -121
-17 -254 -35 -295 -40 -93 -11 -422 -36 -595 -44 -205 -10 -537 -49 -830 -99
-33 -5 -198 -23 -290 -31 -33 -3 -170 -12 -305 -20 -295 -19 -380 -28 -530
-62 -231 -51 -299 -62 -504 -83 -223 -23 -265 -30 -475 -80 -180 -42 -207 -56
-239 -127 -15 -35 -17 -247 -16 -3128 l1 -3090 21 -48 c34 -77 20 -76 487 -42
116 8 233 19 260 24 225 43 586 80 1035 105 52 3 138 8 190 11 52 3 199 10
325 15 127 6 307 20 400 32 162 20 215 21 1120 24 852 2 1053 -1 1315 -20 217
-15 560 -28 591 -22 41 7 80 46 100 96 10 27 13 163 15 616 2 560 3 584 22
628 23 51 61 79 132 96 40 10 62 8 156 -14 208 -48 273 -46 549 18 179 41 221
55 279 95 24 17 70 45 102 62 103 56 140 86 220 179 84 97 83 95 172 276 90
181 94 198 99 428 7 260 -7 348 -80 507 -14 30 -35 93 -48 140 -26 97 -51 159
-80 200 -11 16 -39 60 -62 98 -78 129 -407 454 -537 531 -28 17 -76 49 -108
72 -50 37 -179 96 -378 173 -33 13 -113 31 -178 40 -176 24 -223 52 -258 155
-9 26 -14 328 -18 1185 l-5 1150 -22 36 c-33 52 -59 60 -189 58 -62 -1 -114
-3 -116 -4z m650 -2848 c29 -9 80 -28 115 -44 34 -16 104 -40 155 -53 65 -15
108 -33 140 -56 26 -18 70 -49 99 -69 115 -78 268 -243 370 -395 139 -211 144
-220 167 -315 10 -38 38 -133 62 -209 56 -171 65 -268 40 -396 -10 -46 -23
-95 -30 -109 -8 -14 -35 -82 -60 -151 -40 -106 -54 -132 -99 -180 -29 -30 -65
-71 -82 -90 -39 -46 -175 -147 -232 -172 -69 -30 -244 -59 -368 -60 -217 -1
-408 35 -528 100 -40 22 -103 52 -142 67 -38 16 -88 43 -110 60 -22 17 -81 59
-132 93 -50 34 -111 84 -135 112 -24 28 -62 72 -86 98 -23 26 -68 85 -100 132
-31 47 -71 104 -88 127 -34 44 -63 114 -135 323 -40 115 -43 134 -47 247 -5
152 11 230 77 380 69 158 76 170 155 247 134 132 216 186 391 255 87 34 176
66 199 71 62 14 342 4 404 -13z"/>
</g>
</svg>
